<svg width="226" height="34" viewBox="0 0 226 34" fill="none" xmlns="http://www.w3.org/2000/svg">
<path d="M3.32 28H0.2L12.32 1.2H16.28L28.44 28H25.24L21.64 20.12L6.92 20.12L3.32 28ZM12.68 7.4L8.08 17.56L20.48 17.56L15.84 7.4L14.36 3.92H14.12L12.68 7.4ZM42.9528 28H40.1128L40.1128 3.8L29.0728 3.8L29.0728 1.2L53.9528 1.2V3.8L42.9528 3.8L42.9528 28ZM76.615 28L56.775 28L56.775 1.2H59.615L59.615 25.4L76.615 25.4V28ZM80.7419 28H77.6219L89.7419 1.2H93.7019L105.862 28H102.662L99.0619 20.12H84.3419L80.7419 28ZM90.1019 7.4L85.5019 17.56H97.9019L93.2619 7.4L91.7819 3.92H91.5419L90.1019 7.4ZM111.295 28L108.455 28V1.2H111.575L125.615 19.4L128.855 23.88H129.095L129.015 19.48V1.2H131.855V28H128.735L114.775 10L111.415 5.48H111.215L111.295 9.96V28ZM148.539 28H145.699V3.8L134.659 3.8V1.2L159.539 1.2V3.8L148.539 3.8V28ZM165.201 28H162.361V1.2H165.201V28ZM182.498 28.4C178.498 28.4 175.245 27.1467 172.738 24.64C170.231 22.1067 168.978 18.76 168.978 14.6C168.978 10.44 170.231 7.10667 172.738 4.6C175.245 2.06667 178.498 0.8 182.498 0.8C186.551 0.8 189.831 2.06667 192.338 4.6C194.845 7.10667 196.098 10.44 196.098 14.6C196.098 18.1733 195.151 21.16 193.258 23.56C191.365 25.96 188.818 27.48 185.618 28.12L189.698 33.64H186.258L182.618 28.4H182.498ZM174.658 22.84C176.471 24.7067 179.085 25.64 182.498 25.64C185.911 25.64 188.525 24.7067 190.338 22.84C192.178 20.9733 193.098 18.2267 193.098 14.6C193.098 10.9733 192.178 8.22667 190.338 6.36C188.525 4.49333 185.911 3.56 182.498 3.56C179.085 3.56 176.471 4.49333 174.658 6.36C172.871 8.22667 171.978 10.9733 171.978 14.6C171.978 18.2267 172.871 20.9733 174.658 22.84ZM200.82 28L197.7 28L209.82 1.2H213.78L225.94 28H222.74L219.14 20.12L204.42 20.12L200.82 28ZM210.18 7.4L205.58 17.56L217.98 17.56L213.34 7.4L211.86 3.92H211.62L210.18 7.4Z" fill="black"/>
</svg>
