<svg width="25" height="25" viewBox="0 0 25 25" fill="none" xmlns="http://www.w3.org/2000/svg">
<g clip-path="url(#clip0_72_112)">
<path d="M12.5 0.09375C9.31813 0.09375 6.26375 1.35881 4.01562 3.60844C1.7652 5.85897 0.500644 8.91109 0.5 12.0938C0.5 15.2751 1.76562 18.3294 4.01562 20.5791C6.26375 22.8287 9.31813 24.0938 12.5 24.0938C15.6819 24.0938 18.7363 22.8287 20.9844 20.5791C23.2344 18.3294 24.5 15.2751 24.5 12.0938C24.5 8.91244 23.2344 5.85806 20.9844 3.60844C18.7363 1.35881 15.6819 0.09375 12.5 0.09375Z" fill="url(#paint0_linear_72_112)"/>
<path d="M5.9319 11.967C9.43065 10.443 11.7632 9.43823 12.9294 8.95273C16.2632 7.56654 16.955 7.32579 17.4069 7.31764C17.5063 7.31604 17.7275 7.34061 17.8719 7.45732C17.9919 7.55576 18.0257 7.68889 18.0425 7.78236C18.0575 7.87573 18.0782 8.08854 18.0613 8.25467C17.8813 10.1522 17.0994 14.7568 16.7019 16.8821C16.535 17.7814 16.2032 18.0829 15.8825 18.1123C15.185 18.1764 14.6563 17.6518 13.9813 17.2095C12.9257 16.517 12.3294 16.0862 11.3038 15.4106C10.1188 14.6299 10.8875 14.2007 11.5625 13.4994C11.7388 13.3159 14.81 10.523 14.8682 10.2697C14.8757 10.238 14.8832 10.1199 14.8119 10.0577C14.7425 9.99523 14.6394 10.0166 14.5644 10.0335C14.4575 10.0575 12.7719 11.1727 9.5019 13.379C9.02378 13.7079 8.59065 13.8682 8.20065 13.8598C7.77315 13.8506 6.94815 13.6175 6.33503 13.4184C5.58503 13.1741 4.9869 13.0449 5.0394 12.63C5.06565 12.414 5.36378 12.1929 5.9319 11.967Z" fill="white"/>
</g>
<defs>
<linearGradient id="paint0_linear_72_112" x1="1200.5" y1="0.09375" x2="1200.5" y2="2400.09" gradientUnits="userSpaceOnUse">
<stop stop-color="#2AABEE"/>
<stop offset="1" stop-color="#229ED9"/>
</linearGradient>
<clipPath id="clip0_72_112">
<rect width="24" height="24" fill="white" transform="translate(0.5 0.09375)"/>
</clipPath>
</defs>
</svg>
