<svg width="20" height="20" viewBox="0 0 20 20" fill="none" xmlns="http://www.w3.org/2000/svg">
<path d="M10 19.5H9.99921C8.32075 19.5027 6.67184 19.0585 5.22187 18.2131L5.04071 18.1074L4.8384 18.1626L0.716122 19.2874L1.83847 15.1633L1.8935 14.9611L1.78789 14.78C0.941742 13.3296 0.497209 11.68 0.500014 10.0008V10C0.500014 4.75314 4.75316 0.5 10 0.5C15.2469 0.5 19.5 4.75314 19.5 10C19.5 15.2469 15.2469 19.5 10 19.5Z" stroke="black"/>
<path d="M6.69303 5.00117L6.49303 5.00917C6.36356 5.01705 6.23701 5.05107 6.12103 5.10917C6.01255 5.1706 5.91353 5.24739 5.82703 5.33717C5.70703 5.45017 5.63903 5.54817 5.56603 5.64317C5.19616 6.12407 4.99701 6.71448 5.00003 7.32117C5.00203 7.81117 5.13003 8.28817 5.33003 8.73417C5.73903 9.63617 6.41203 10.5912 7.30003 11.4762C7.51403 11.6892 7.72403 11.9032 7.95003 12.1022C9.05342 13.0736 10.3683 13.7742 11.79 14.1482L12.358 14.2352C12.543 14.2452 12.728 14.2312 12.914 14.2222C13.2053 14.2071 13.4896 14.1283 13.747 13.9912C13.878 13.9237 14.0058 13.8503 14.13 13.7712C14.13 13.7712 14.173 13.7432 14.255 13.6812C14.39 13.5812 14.473 13.5102 14.585 13.3932C14.668 13.3072 14.74 13.2062 14.795 13.0912C14.873 12.9282 14.951 12.6172 14.983 12.3582C15.007 12.1602 15 12.0522 14.997 11.9852C14.993 11.8782 14.904 11.7672 14.807 11.7202L14.225 11.4592C14.225 11.4592 13.355 11.0802 12.823 10.8382C12.7674 10.8139 12.7077 10.8 12.647 10.7972C12.5786 10.7901 12.5095 10.7978 12.4443 10.8197C12.3791 10.8417 12.3193 10.8773 12.269 10.9242C12.264 10.9222 12.197 10.9792 11.474 11.8552C11.4325 11.9109 11.3754 11.9531 11.3098 11.9762C11.2443 11.9994 11.1733 12.0025 11.106 11.9852C11.0409 11.9677 10.9771 11.9456 10.915 11.9192C10.791 11.8672 10.748 11.8472 10.663 11.8112C10.0891 11.5607 9.55772 11.2223 9.08803 10.8082C8.96203 10.6982 8.84503 10.5782 8.72503 10.4622C8.33162 10.0854 7.98876 9.65918 7.70503 9.19417L7.64603 9.09917C7.60366 9.03533 7.56939 8.96647 7.54403 8.89417C7.50603 8.74717 7.60503 8.62917 7.60503 8.62917C7.60503 8.62917 7.84803 8.36317 7.96103 8.21917C8.07103 8.07917 8.16403 7.94317 8.22403 7.84617C8.34203 7.65617 8.37903 7.46117 8.31703 7.31017C8.03703 6.62617 7.74703 5.94517 7.44903 5.26917C7.39003 5.13517 7.21503 5.03917 7.05603 5.02017C7.00203 5.01417 6.94803 5.00817 6.89403 5.00417C6.75974 4.9975 6.62517 4.99883 6.49103 5.00817L6.69303 5.00117Z" fill="black"/>
</svg>
