<svg width="25" height="25" viewBox="0 0 25 25" fill="none" xmlns="http://www.w3.org/2000/svg">
<g clip-path="url(#clip0_72_109)">
<path d="M0.600313 11.9453C0.599656 14.0506 1.14969 16.1059 2.19537 17.9175L0.5 24.1075L6.83478 22.4466C8.58022 23.3982 10.5454 23.9 12.5451 23.9007H12.5502C19.136 23.9007 24.4972 18.5412 24.5 11.9548C24.5011 8.76281 23.2591 5.76122 21.0031 3.50325C18.7468 1.24556 15.7468 0.0013125 12.5502 0C5.96337 0 0.602938 5.35875 0.600313 11.9453ZM4.37291 17.6055L4.13637 17.23C3.14206 15.649 2.61725 13.822 2.618 11.946C2.62006 6.47147 7.07544 2.0175 12.554 2.0175C15.2071 2.01863 17.7005 3.05288 19.5759 4.92938C21.4512 6.80606 22.4831 9.30075 22.4824 11.9541C22.48 17.4286 18.0245 21.8831 12.5502 21.8831H12.5463C10.7638 21.8822 9.01569 21.4035 7.49112 20.4989L7.12831 20.2838L3.36913 21.2693L4.37291 17.6055Z" fill="#60D669"/>
<path d="M9.56358 6.95138C9.3399 6.45423 9.10449 6.44419 8.89177 6.43547C8.71758 6.42797 8.51846 6.42854 8.31952 6.42854C8.1204 6.42854 7.79687 6.50344 7.5234 6.80204C7.24965 7.10091 6.47827 7.82316 6.47827 9.29213C6.47827 10.7611 7.54824 12.1809 7.6974 12.3803C7.84674 12.5793 9.76299 15.6903 12.7979 16.8871C15.3201 17.8817 15.8334 17.6839 16.3808 17.634C16.9283 17.5843 18.1474 16.9119 18.3961 16.2147C18.6451 15.5176 18.6451 14.92 18.5704 14.7952C18.4958 14.6708 18.2967 14.596 17.9981 14.4468C17.6995 14.2975 16.2315 13.5751 15.9578 13.4754C15.6841 13.3759 15.485 13.3262 15.2859 13.6252C15.0868 13.9237 14.515 14.596 14.3407 14.7952C14.1666 14.9948 13.9923 15.0196 13.6938 14.8703C13.3951 14.7204 12.4335 14.4055 11.2926 13.3884C10.405 12.597 9.80574 11.6197 9.63155 11.3207C9.45737 11.0222 9.6129 10.8604 9.76262 10.7116C9.89677 10.5778 10.0613 10.3629 10.2107 10.1887C10.3596 10.0143 10.4093 9.88988 10.5089 9.69076C10.6085 9.49144 10.5586 9.31707 10.4841 9.16773C10.4093 9.01838 9.82908 7.54173 9.56358 6.95138Z" fill="#60D669"/>
</g>
<defs>
<clipPath id="clip0_72_109">
<rect width="24" height="24.1875" fill="white" transform="translate(0.5)"/>
</clipPath>
</defs>
</svg>
